<svg width="12" height="12" viewBox="0 0 12 12" fill="none" xmlns="http://www.w3.org/2000/svg">
<path fill-rule="evenodd" clip-rule="evenodd" d="M8.12437 7.64771H8.65104L11.4777 10.4877C11.751 10.761 11.751 11.2077 11.4777 11.481C11.2044 11.7544 10.7577 11.7544 10.4844 11.481L7.65104 8.64771V8.12105L7.47104 7.93438C6.5377 8.73438 5.26437 9.14771 3.91104 8.92105C2.0577 8.60771 0.577705 7.06105 0.351038 5.19438C0.00437117 2.37438 2.3777 0.00104859 5.1977 0.347715C7.06437 0.574382 8.61104 2.05438 8.92437 3.90771C9.15104 5.26105 8.73771 6.53438 7.93771 7.46771L8.12437 7.64771ZM1.65104 4.64772C1.65104 6.30772 2.99104 7.64772 4.65104 7.64772C6.31104 7.64772 7.65104 6.30772 7.65104 4.64772C7.65104 2.98772 6.31104 1.64772 4.65104 1.64772C2.99104 1.64772 1.65104 2.98772 1.65104 4.64772Z" fill="#D1D1D1"/>
</svg>
